<svg width="40" height="52" viewBox="0 0 40 52" fill="none" xmlns="http://www.w3.org/2000/svg">
<path d="M8 14C8 17.1826 9.26428 20.2348 11.5147 22.4853C13.7652 24.7357 16.8174 26 20 26C23.1826 26 26.2348 24.7357 28.4853 22.4853C30.7357 20.2348 32 17.1826 32 14C32 10.8174 30.7357 7.76515 28.4853 5.51472C26.2348 3.26428 23.1826 2 20 2C16.8174 2 13.7652 3.26428 11.5147 5.51472C9.26428 7.76515 8 10.8174 8 14V14Z" stroke="black" stroke-width="3" stroke-linecap="round" stroke-linejoin="round"/>
<path d="M38 50C38 45.2261 36.1036 40.6477 32.7279 37.2721C29.3523 33.8964 24.7739 32 20 32C15.2261 32 10.6477 33.8964 7.27208 37.2721C3.89642 40.6477 2 45.2261 2 50" stroke="black" stroke-width="3" stroke-linecap="round" stroke-linejoin="round"/>
</svg>
