<svg width="24" height="24" viewBox="0 0 24 24" fill="none" xmlns="http://www.w3.org/2000/svg">
<path d="M12.1467 23H1.97778C1.71845 23 1.46975 22.897 1.28638 22.7136C1.10302 22.5302 1 22.2815 1 22.0222V1.97778C1 1.71845 1.10302 1.46975 1.28638 1.28638C1.46975 1.10302 1.71845 1 1.97778 1H22.0222C22.2815 1 22.5302 1.10302 22.7136 1.28638C22.897 1.46975 23 1.71845 23 1.97778V22.0222C23 22.2815 22.897 22.5302 22.7136 22.7136C22.5302 22.897 22.2815 23 22.0222 23H16.0578V14.6889H18.5609C18.681 14.6898 18.7972 14.6464 18.8874 14.567C18.9776 14.4877 19.0354 14.3779 19.0498 14.2587L19.4213 11.3253C19.4297 11.2564 19.4232 11.1864 19.4024 11.1202C19.3816 11.0539 19.3469 10.9929 19.3007 10.941C19.2544 10.8892 19.1976 10.8479 19.1341 10.8197C19.0707 10.7916 19.0019 10.7773 18.9324 10.7778H16.0578V9.74133C16.0578 9.52433 16.1005 9.30945 16.1836 9.10897C16.2666 8.90849 16.3883 8.72632 16.5418 8.57288C16.6952 8.41943 16.8774 8.29772 17.0779 8.21467C17.2783 8.13163 17.4932 8.08889 17.7102 8.08889H19.48C19.6097 8.08889 19.734 8.03738 19.8257 7.9457C19.9174 7.85401 19.9689 7.72966 19.9689 7.6V4.66667C19.9689 4.53701 19.9174 4.41265 19.8257 4.32097C19.734 4.22929 19.6097 4.17778 19.48 4.17778H17.7102C16.2347 4.17778 14.8196 4.76394 13.7762 5.80731C12.7328 6.85067 12.1467 8.26579 12.1467 9.74133V10.7778H9.70222C9.57256 10.7778 9.44821 10.8293 9.35653 10.921C9.26484 11.0127 9.21333 11.137 9.21333 11.2667V14.2C9.21333 14.3297 9.26484 14.454 9.35653 14.5457C9.44821 14.6374 9.57256 14.6889 9.70222 14.6889H12.1467V23Z" stroke="white" stroke-width="1.5" stroke-linecap="round" stroke-linejoin="round"/>
</svg>
