<svg width="24" height="24" viewBox="0 0 24 24" fill="none" xmlns="http://www.w3.org/2000/svg">
<path fill-rule="evenodd" clip-rule="evenodd" d="M-0.00976562 0.75C-0.00976562 0.335786 0.326021 0 0.740234 0H23.2402C23.6544 0 23.9902 0.335786 23.9902 0.75V23.25C23.9902 23.6642 23.6544 24 23.2402 24H0.740234C0.326021 24 -0.00976562 23.6642 -0.00976562 23.25V0.75ZM1.49023 1.5V22.5H22.4902V1.5H1.49023Z" fill="white"/>
<path fill-rule="evenodd" clip-rule="evenodd" d="M9.6445 7.31672C10.3882 7.00865 11.1853 6.8501 11.9904 6.8501C12.7954 6.8501 13.5925 7.00865 14.3362 7.31672C15.0799 7.62478 15.7557 8.07631 16.3249 8.64553C16.8941 9.21476 17.3457 9.89052 17.6537 10.6342C17.9618 11.378 18.1204 12.1751 18.1204 12.9801C18.1204 13.7851 17.9618 14.5822 17.6537 15.3259C17.3457 16.0697 16.8941 16.7454 16.3249 17.3147C15.7557 17.8839 15.0799 18.3354 14.3362 18.6435C13.5925 18.9515 12.7954 19.1101 11.9904 19.1101C11.1853 19.1101 10.3882 18.9515 9.6445 18.6435C8.90078 18.3354 8.22501 17.8839 7.65579 17.3147C7.08656 16.7454 6.63503 16.0697 6.32697 15.3259C6.01891 14.5822 5.86035 13.7851 5.86035 12.9801C5.86035 12.1751 6.01891 11.378 6.32697 10.6342C6.63503 9.89052 7.08656 9.21476 7.65579 8.64553C8.22501 8.07631 8.90078 7.62478 9.6445 7.31672ZM11.9904 8.3501C11.3823 8.3501 10.7803 8.46986 10.2185 8.70254C9.65679 8.93521 9.14638 9.27626 8.71645 9.70619C8.28651 10.1361 7.94547 10.6465 7.71279 11.2083C7.48011 11.77 7.36035 12.3721 7.36035 12.9801C7.36035 13.5881 7.48011 14.1902 7.71279 14.7519C7.94547 15.3137 8.28651 15.8241 8.71645 16.254C9.14638 16.6839 9.65679 17.025 10.2185 17.2577C10.7803 17.4903 11.3823 17.6101 11.9904 17.6101C12.5984 17.6101 13.2004 17.4903 13.7622 17.2577C14.3239 17.025 14.8343 16.6839 15.2643 16.254C15.6942 15.8241 16.0352 15.3137 16.2679 14.7519C16.5006 14.1902 16.6204 13.5881 16.6204 12.9801C16.6204 12.3721 16.5006 11.77 16.2679 11.2083C16.0352 10.6465 15.6942 10.1361 15.2643 9.70619C14.8343 9.27626 14.3239 8.93521 13.7622 8.70254C13.2004 8.46986 12.5984 8.3501 11.9904 8.3501Z" fill="white"/>
<path fill-rule="evenodd" clip-rule="evenodd" d="M9.69214 10.6819C10.3016 10.0724 11.1283 9.72998 11.9902 9.72998C12.8522 9.72998 13.6788 10.0724 14.2883 10.6819C14.8978 11.2914 15.2402 12.118 15.2402 12.98C15.2402 13.8419 14.8978 14.6686 14.2883 15.2781C13.6788 15.8876 12.8522 16.23 11.9902 16.23C11.1283 16.23 10.3016 15.8876 9.69214 15.2781C9.08264 14.6686 8.74023 13.8419 8.74023 12.98C8.74023 12.118 9.08264 11.2914 9.69214 10.6819ZM11.9902 11.23C11.5261 11.23 11.081 11.4144 10.7528 11.7425C10.4246 12.0707 10.2402 12.5159 10.2402 12.98C10.2402 13.4441 10.4246 13.8892 10.7528 14.2174C11.081 14.5456 11.5261 14.73 11.9902 14.73C12.4544 14.73 12.8995 14.5456 13.2277 14.2174C13.5559 13.8892 13.7402 13.4441 13.7402 12.98C13.7402 12.5159 13.5559 12.0707 13.2277 11.7425C12.8995 11.4144 12.4544 11.23 11.9902 11.23Z" fill="white"/>
<path fill-rule="evenodd" clip-rule="evenodd" d="M-0.00976562 10.53C-0.00976562 10.1158 0.326021 9.78003 0.740234 9.78003H7.20023C7.61445 9.78003 7.95023 10.1158 7.95023 10.53C7.95023 10.9442 7.61445 11.28 7.20023 11.28H0.740234C0.326021 11.28 -0.00976562 10.9442 -0.00976562 10.53Z" fill="white"/>
<path fill-rule="evenodd" clip-rule="evenodd" d="M16.04 10.53C16.04 10.1158 16.3758 9.78003 16.79 9.78003H23.24C23.6543 9.78003 23.99 10.1158 23.99 10.53C23.99 10.9442 23.6543 11.28 23.24 11.28H16.79C16.3758 11.28 16.04 10.9442 16.04 10.53Z" fill="white"/>
<path fill-rule="evenodd" clip-rule="evenodd" d="M16.4902 4.25C16.4902 3.83579 16.826 3.5 17.2402 3.5H19.7402C20.1544 3.5 20.4902 3.83579 20.4902 4.25V6.75C20.4902 7.16421 20.1544 7.5 19.7402 7.5H17.2402C16.826 7.5 16.4902 7.16421 16.4902 6.75V4.25ZM17.9902 5V6H18.9902V5H17.9902Z" fill="white"/>
<path fill-rule="evenodd" clip-rule="evenodd" d="M5.61035 0.110107C6.02457 0.110107 6.36035 0.445894 6.36035 0.860107V4.79011C6.36035 5.20432 6.02457 5.54011 5.61035 5.54011C5.19614 5.54011 4.86035 5.20432 4.86035 4.79011V0.860107C4.86035 0.445894 5.19614 0.110107 5.61035 0.110107Z" fill="white"/>
<path fill-rule="evenodd" clip-rule="evenodd" d="M8.27002 0C8.68423 0 9.02002 0.335786 9.02002 0.75V4.79C9.02002 5.20421 8.68423 5.54 8.27002 5.54C7.85581 5.54 7.52002 5.20421 7.52002 4.79V0.75C7.52002 0.335786 7.85581 0 8.27002 0Z" fill="white"/>
<path fill-rule="evenodd" clip-rule="evenodd" d="M10.9302 0C11.3444 0 11.6802 0.335786 11.6802 0.75V4.79C11.6802 5.20421 11.3444 5.54 10.9302 5.54C10.516 5.54 10.1802 5.20421 10.1802 4.79V0.75C10.1802 0.335786 10.516 0 10.9302 0Z" fill="white"/>
</svg>
