<svg width="48" height="48" viewBox="0 0 48 48" fill="none" xmlns="http://www.w3.org/2000/svg">
<path d="M1.47998 1.5H46.48V46.5H1.47998V1.5Z" stroke="black" stroke-width="3" stroke-linecap="round" stroke-linejoin="round"/>
<path d="M13.2202 25.96C13.2202 27.373 13.4985 28.7722 14.0393 30.0776C14.58 31.3831 15.3726 32.5693 16.3717 33.5684C17.3709 34.5676 18.5571 35.3602 19.8625 35.9009C21.168 36.4416 22.5672 36.72 23.9802 36.72C25.3932 36.72 26.7924 36.4416 28.0979 35.9009C29.4034 35.3602 30.5895 34.5676 31.5887 33.5684C32.5878 32.5693 33.3804 31.3831 33.9212 30.0776C34.4619 28.7722 34.7402 27.373 34.7402 25.96C34.7402 24.5469 34.4619 23.1477 33.9212 21.8423C33.3804 20.5368 32.5878 19.3506 31.5887 18.3515C30.5895 17.3523 29.4034 16.5597 28.0979 16.019C26.7924 15.4783 25.3932 15.2 23.9802 15.2C22.5672 15.2 21.168 15.4783 19.8625 16.019C18.5571 16.5597 17.3709 17.3523 16.3717 18.3515C15.3726 19.3506 14.58 20.5368 14.0393 21.8423C13.4985 23.1477 13.2202 24.5469 13.2202 25.96V25.96Z" stroke="black" stroke-width="3" stroke-linecap="round" stroke-linejoin="round"/>
<path d="M18.98 25.96C18.98 27.286 19.5068 28.5578 20.4444 29.4955C21.3821 30.4332 22.6539 30.96 23.98 30.96C25.3061 30.96 26.5778 30.4332 27.5155 29.4955C28.4532 28.5578 28.98 27.286 28.98 25.96C28.98 24.6339 28.4532 23.3621 27.5155 22.4244C26.5778 21.4867 25.3061 20.96 23.98 20.96C22.6539 20.96 21.3821 21.4867 20.4444 22.4244C19.5068 23.3621 18.98 24.6339 18.98 25.96Z" stroke="black" stroke-width="3" stroke-linecap="round" stroke-linejoin="round"/>
<path d="M1.47998 21.0601H14.4" stroke="black" stroke-width="3" stroke-linecap="round" stroke-linejoin="round"/>
<path d="M33.5801 21.0601H46.4801" stroke="black" stroke-width="3" stroke-linecap="round" stroke-linejoin="round"/>
<path d="M34.48 8.5H39.48V13.5H34.48V8.5Z" stroke="black" stroke-width="3" stroke-linecap="round" stroke-linejoin="round"/>
<path d="M11.2202 1.71997V9.57997" stroke="black" stroke-width="3" stroke-linecap="round" stroke-linejoin="round"/>
<path d="M16.54 1.5V9.58" stroke="black" stroke-width="3" stroke-linecap="round" stroke-linejoin="round"/>
<path d="M21.8599 1.5V9.58" stroke="black" stroke-width="3" stroke-linecap="round" stroke-linejoin="round"/>
</svg>
