<svg width="48" height="46" viewBox="0 0 48 46" fill="none" xmlns="http://www.w3.org/2000/svg">
<path d="M36.988 22.15L32.434 17.6L36.676 13.356L41.23 17.91C41.7958 18.4564 42.5536 18.7588 43.3402 18.752C44.1268 18.7451 44.8793 18.4296 45.4355 17.8734C45.9917 17.3172 46.3072 16.5648 46.314 15.7782C46.3209 14.9916 46.0185 14.2338 45.472 13.668L40.92 9.11196L43.04 6.99996C43.6039 6.4377 43.9213 5.67448 43.9224 4.8782C43.9235 4.08192 43.6083 3.31781 43.046 2.75396C42.4838 2.19011 41.7205 1.87271 40.9243 1.87159C40.128 1.87046 39.3639 2.1857 38.8 2.74796L17.276 24.27C15.0575 23.0714 12.4817 22.7114 10.0196 23.2558C7.5575 23.8002 5.37361 25.2126 3.86724 27.2348C2.36087 29.257 1.63268 31.7538 1.81583 34.2687C1.99897 36.7836 3.0812 39.1486 4.86464 40.9312C6.64808 42.7138 9.01357 43.7949 11.5286 43.9769C14.0436 44.1588 16.54 43.4295 18.5615 41.9221C20.583 40.4148 21.9943 38.2303 22.5376 35.7679C23.0808 33.3055 22.7196 30.7299 21.52 28.512L28.2 21.84L32.746 26.4C33.0247 26.6785 33.3555 26.8994 33.7195 27.0501C34.0836 27.2008 34.4737 27.2783 34.8677 27.2782C35.2617 27.2781 35.6518 27.2004 36.0158 27.0496C36.3798 26.8987 36.7105 26.6776 36.989 26.399C37.2676 26.1203 37.4885 25.7895 37.6392 25.4255C37.7899 25.0614 37.8674 24.6713 37.8673 24.2773C37.8672 23.8833 37.7895 23.4931 37.6386 23.1292C37.4878 22.7652 37.2667 22.4345 36.988 22.156V22.15Z" stroke="black" stroke-width="3" stroke-linecap="round" stroke-linejoin="round"/>
<path d="M8.5542 33.4858C8.5542 33.9783 8.6512 34.4659 8.83965 34.9209C9.02811 35.3759 9.30433 35.7893 9.65255 36.1375C10.0008 36.4857 10.4142 36.7619 10.8691 36.9504C11.3241 37.1388 11.8117 37.2358 12.3042 37.2358C12.7967 37.2358 13.2843 37.1388 13.7393 36.9504C14.1942 36.7619 14.6076 36.4857 14.9558 36.1375C15.3041 35.7893 15.5803 35.3759 15.7687 34.9209C15.9572 34.4659 16.0542 33.9783 16.0542 33.4858C16.0542 32.9934 15.9572 32.5057 15.7687 32.0508C15.5803 31.5958 15.3041 31.1824 14.9558 30.8342C14.6076 30.486 14.1942 30.2097 13.7393 30.0213C13.2843 29.8328 12.7967 29.7358 12.3042 29.7358C11.8117 29.7358 11.3241 29.8328 10.8691 30.0213C10.4142 30.2097 10.0008 30.486 9.65255 30.8342C9.30433 31.1824 9.02811 31.5958 8.83965 32.0508C8.6512 32.5057 8.5542 32.9934 8.5542 33.4858Z" stroke="black" stroke-width="3" stroke-linecap="round" stroke-linejoin="round"/>
</svg>
