<svg width="44" height="41" viewBox="0 0 44 41" fill="none" xmlns="http://www.w3.org/2000/svg">
<path d="M25.2401 37.7061L25.2601 37.7181C26.988 38.8187 29.0396 39.2968 31.076 39.0735C33.1124 38.8503 35.0117 37.9389 36.4601 36.4901L37.7181 35.2301C38.2805 34.6675 38.5964 33.9046 38.5964 33.1091C38.5964 32.3136 38.2805 31.5507 37.7181 30.9881L32.4161 25.6841C32.1375 25.4053 31.8067 25.1842 31.4426 25.0333C31.0785 24.8824 30.6882 24.8047 30.2941 24.8047C29.9 24.8047 29.5097 24.8824 29.1456 25.0333C28.7815 25.1842 28.4507 25.4053 28.1721 25.6841V25.6841C27.6095 26.2465 26.8466 26.5625 26.0511 26.5625C25.2556 26.5625 24.4927 26.2465 23.9301 25.6841L15.4421 17.2001C15.1633 16.9215 14.9422 16.5907 14.7913 16.2266C14.6404 15.8625 14.5627 15.4722 14.5627 15.0781C14.5627 14.684 14.6404 14.2937 14.7913 13.9296C14.9422 13.5655 15.1633 13.2347 15.4421 12.9561C16.0045 12.3935 16.3204 11.6306 16.3204 10.8351C16.3204 10.0396 16.0045 9.27668 15.4421 8.7141L10.1381 3.4101C9.5755 2.84768 8.81258 2.53174 8.01709 2.53174C7.2216 2.53174 6.45867 2.84768 5.89609 3.4101L4.63609 4.6701C3.18727 6.11846 2.27593 8.01775 2.05265 10.0542C1.82937 12.0906 2.30752 14.1422 3.40809 15.8701L3.42009 15.8901C9.23299 24.4892 16.6399 31.8948 25.2401 37.7061V37.7061Z" stroke="black" stroke-width="3" stroke-linecap="round" stroke-linejoin="round"/>
<path d="M26.75 2.37598C26.6017 2.37598 26.4567 2.41996 26.3333 2.50237C26.21 2.58479 26.1139 2.70192 26.0571 2.83896C26.0003 2.97601 25.9855 3.12681 26.0144 3.27229C26.0434 3.41778 26.1148 3.55142 26.2197 3.65631C26.3246 3.7612 26.4582 3.83263 26.6037 3.86157C26.7492 3.8905 26.9 3.87565 27.037 3.81889C27.1741 3.76212 27.2912 3.66599 27.3736 3.54265C27.456 3.41932 27.5 3.27431 27.5 3.12598C27.5 2.92706 27.421 2.7363 27.2803 2.59565C27.1397 2.45499 26.9489 2.37598 26.75 2.37598" stroke="black" stroke-width="3" stroke-linecap="round" stroke-linejoin="round"/>
<path d="M34.25 2.37598C34.1017 2.37598 33.9567 2.41996 33.8333 2.50237C33.71 2.58479 33.6139 2.70192 33.5571 2.83896C33.5003 2.97601 33.4855 3.12681 33.5144 3.27229C33.5434 3.41778 33.6148 3.55142 33.7197 3.65631C33.8246 3.7612 33.9582 3.83263 34.1037 3.86157C34.2492 3.8905 34.4 3.87565 34.537 3.81889C34.6741 3.76212 34.7912 3.66599 34.8736 3.54265C34.956 3.41932 35 3.27431 35 3.12598C35 2.92706 34.921 2.7363 34.7803 2.59565C34.6397 2.45499 34.4489 2.37598 34.25 2.37598" stroke="black" stroke-width="3" stroke-linecap="round" stroke-linejoin="round"/>
<path d="M41.75 2.37598C41.6017 2.37598 41.4567 2.41996 41.3333 2.50237C41.21 2.58479 41.1139 2.70192 41.0571 2.83896C41.0003 2.97601 40.9855 3.12681 41.0144 3.27229C41.0434 3.41778 41.1148 3.55142 41.2197 3.65631C41.3246 3.7612 41.4582 3.83263 41.6037 3.86157C41.7492 3.8905 41.9 3.87565 42.037 3.81889C42.1741 3.76212 42.2912 3.66599 42.3736 3.54265C42.456 3.41932 42.5 3.27431 42.5 3.12598C42.5 2.92706 42.421 2.7363 42.2803 2.59565C42.1397 2.45499 41.9489 2.37598 41.75 2.37598" stroke="black" stroke-width="3" stroke-linecap="round" stroke-linejoin="round"/>
</svg>
