<svg width="48" height="48" viewBox="0 0 48 48" fill="none" xmlns="http://www.w3.org/2000/svg">
<path d="M18 38.376C17.4374 38.9385 16.6745 39.2544 15.879 39.2544C15.0835 39.2544 14.3205 38.9385 13.758 38.376L2.99996 27.62C2.72119 27.3414 2.50004 27.0106 2.34915 26.6465C2.19827 26.2824 2.12061 25.8922 2.12061 25.498C2.12061 25.1039 2.19827 24.7137 2.34915 24.3496C2.50004 23.9855 2.72119 23.6546 2.99996 23.376L24 2.37605C24.2787 2.09751 24.6095 1.87661 24.9736 1.72596C25.3377 1.57532 25.7279 1.49787 26.122 1.49805H36.878C37.6736 1.49805 38.4367 1.81412 38.9993 2.37673C39.5619 2.93934 39.878 3.7024 39.878 4.49805V15.256C39.8778 16.0511 39.562 16.8136 39 17.376" stroke="black" stroke-width="3" stroke-linecap="round" stroke-linejoin="round"/>
<path d="M32.3779 8.24805C32.2296 8.24805 32.0846 8.29203 31.9613 8.37444C31.8379 8.45686 31.7418 8.57399 31.685 8.71103C31.6283 8.84808 31.6134 8.99888 31.6423 9.14436C31.6713 9.28985 31.7427 9.42349 31.8476 9.52838C31.9525 9.63327 32.0861 9.7047 32.2316 9.73364C32.3771 9.76257 32.5279 9.74772 32.6649 9.69096C32.802 9.63419 32.9191 9.53806 33.0015 9.41472C33.0839 9.29139 33.1279 9.14638 33.1279 8.99805C33.1279 8.79913 33.0489 8.60837 32.9083 8.46772C32.7676 8.32706 32.5768 8.24805 32.3779 8.24805Z" stroke="black" stroke-width="3" stroke-linecap="round" stroke-linejoin="round"/>
<path d="M36.8781 28.4981H32.8121C32.1877 28.4961 31.5821 28.712 31.0998 29.1087C30.6175 29.5054 30.2888 30.058 30.1703 30.6711C30.0518 31.2842 30.151 31.9195 30.4507 32.4673C30.7504 33.0151 31.2319 33.4412 31.8121 33.6721L35.9381 35.3241C36.5162 35.5567 36.9954 35.9832 37.2934 36.5304C37.5914 37.0777 37.6897 37.7116 37.5715 38.3234C37.4532 38.9352 37.1258 39.4868 36.6453 39.8836C36.1648 40.2804 35.5613 40.4976 34.9381 40.4981H30.8781" stroke="black" stroke-width="3" stroke-linecap="round" stroke-linejoin="round"/>
<path d="M33.8779 28.498V26.998" stroke="black" stroke-width="3" stroke-linecap="round" stroke-linejoin="round"/>
<path d="M33.8779 41.998V40.498" stroke="black" stroke-width="3" stroke-linecap="round" stroke-linejoin="round"/>
<path d="M21.8779 34.498C21.8779 36.0739 22.1883 37.6343 22.7914 39.0903C23.3944 40.5462 24.2783 41.869 25.3926 42.9833C26.507 44.0976 27.8298 44.9815 29.2857 45.5846C30.7416 46.1877 32.3021 46.498 33.8779 46.498C35.4538 46.498 37.0142 46.1877 38.4701 45.5846C39.926 44.9815 41.2489 44.0976 42.3632 42.9833C43.4775 41.869 44.3614 40.5462 44.9645 39.0903C45.5675 37.6343 45.8779 36.0739 45.8779 34.498C45.8779 32.9222 45.5675 31.3618 44.9645 29.9058C44.3614 28.4499 43.4775 27.1271 42.3632 26.0128C41.2489 24.8985 39.926 24.0145 38.4701 23.4115C37.0142 22.8084 35.4538 22.498 33.8779 22.498C32.3021 22.498 30.7416 22.8084 29.2857 23.4115C27.8298 24.0145 26.507 24.8985 25.3926 26.0128C24.2783 27.1271 23.3944 28.4499 22.7914 29.9058C22.1883 31.3618 21.8779 32.9222 21.8779 34.498V34.498Z" stroke="black" stroke-width="3" stroke-linecap="round" stroke-linejoin="round"/>
</svg>
