<svg width="48" height="48" viewBox="0 0 48 48" fill="none" xmlns="http://www.w3.org/2000/svg">
<path d="M25.4581 2.40003L32.1501 15.658L45.0301 16.934C45.3367 16.9595 45.6296 17.0723 45.8741 17.2591C46.1186 17.4459 46.3045 17.6988 46.4097 17.9879C46.5149 18.2771 46.5351 18.5903 46.4678 18.8905C46.4005 19.1908 46.2486 19.4654 46.0301 19.682L35.4301 30.188L39.3601 44.464C39.4405 44.7668 39.4317 45.0864 39.3348 45.3844C39.2379 45.6823 39.0569 45.9459 38.8138 46.1434C38.5706 46.3409 38.2755 46.464 37.9641 46.4978C37.6526 46.5317 37.338 46.4748 37.0581 46.334L24.0001 39.868L10.9601 46.326C10.6802 46.4668 10.3656 46.5237 10.0541 46.4898C9.74264 46.456 9.44758 46.3329 9.2044 46.1354C8.96123 45.9379 8.7803 45.6743 8.68338 45.3764C8.58646 45.0784 8.57768 44.7588 8.65809 44.456L12.5881 30.18L1.98009 19.674C1.76155 19.4574 1.60965 19.1828 1.54238 18.8825C1.4751 18.5823 1.49526 18.2691 1.60048 17.9799C1.7057 17.6908 1.89156 17.4379 2.13606 17.2511C2.38056 17.0643 2.67346 16.9515 2.98009 16.926L15.8601 15.65L22.5421 2.40003C22.6795 2.13163 22.8884 1.90638 23.1456 1.74908C23.4029 1.59178 23.6986 1.50854 24.0001 1.50854C24.3016 1.50854 24.5973 1.59178 24.8546 1.74908C25.1118 1.90638 25.3207 2.13163 25.4581 2.40003V2.40003Z" stroke="black" stroke-width="3" stroke-linecap="round" stroke-linejoin="round"/>
</svg>
