<svg width="26" height="26" viewBox="0 0 26 26" fill="none" xmlns="http://www.w3.org/2000/svg">
<path d="M13.7762 1.47547L17.3453 8.5466L24.2148 9.22715C24.3784 9.24074 24.5346 9.3009 24.665 9.40052C24.7954 9.50014 24.8945 9.63504 24.9506 9.78925C25.0068 9.94345 25.0175 10.1105 24.9816 10.2706C24.9458 10.4308 24.8647 10.5773 24.7482 10.6928L19.0947 16.2961L21.1908 23.9102C21.2336 24.0717 21.229 24.2422 21.1773 24.4011C21.1256 24.56 21.0291 24.7005 20.8994 24.8059C20.7697 24.9113 20.6123 24.9769 20.4462 24.9949C20.2801 25.013 20.1123 24.9826 19.963 24.9076L12.9985 21.4589L6.04369 24.9033C5.8944 24.9784 5.72661 25.0087 5.56049 24.9907C5.39437 24.9726 5.237 24.907 5.1073 24.8016C4.97761 24.6963 4.88111 24.5557 4.82942 24.3968C4.77772 24.2379 4.77304 24.0674 4.81593 23.9059L6.91198 16.2919L1.25423 10.6885C1.13767 10.573 1.05666 10.4265 1.02078 10.2664C0.984897 10.1062 0.995651 9.93919 1.05177 9.78498C1.10788 9.63077 1.20701 9.49587 1.33742 9.39625C1.46782 9.29664 1.62404 9.23647 1.78758 9.22288L8.65709 8.54233L12.2209 1.47547C12.2942 1.33232 12.4056 1.21218 12.5428 1.12829C12.68 1.04439 12.8377 1 12.9985 1C13.1594 1 13.3171 1.04439 13.4543 1.12829C13.5915 1.21218 13.7029 1.33232 13.7762 1.47547Z" fill="#9B6333" stroke="#9B6333" stroke-linecap="round" stroke-linejoin="round"/>
</svg>
