<svg width="48" height="47" viewBox="0 0 48 47" fill="none" xmlns="http://www.w3.org/2000/svg">
<path d="M17.25 24C17.4489 24 17.6397 24.079 17.7803 24.2197C17.921 24.3603 18 24.5511 18 24.75" stroke="black" stroke-width="3" stroke-linecap="round" stroke-linejoin="round"/>
<path d="M16.5 24.75C16.5 24.5511 16.579 24.3603 16.7197 24.2197C16.8603 24.079 17.0511 24 17.25 24" stroke="black" stroke-width="3" stroke-linecap="round" stroke-linejoin="round"/>
<path d="M17.25 25.5C17.0511 25.5 16.8603 25.421 16.7197 25.2803C16.579 25.1397 16.5 24.9489 16.5 24.75" stroke="black" stroke-width="3" stroke-linecap="round" stroke-linejoin="round"/>
<path d="M18 24.75C18 24.9489 17.921 25.1397 17.7803 25.2803C17.6397 25.421 17.4489 25.5 17.25 25.5" stroke="black" stroke-width="3" stroke-linecap="round" stroke-linejoin="round"/>
<path d="M30.75 24C30.9489 24 31.1397 24.079 31.2803 24.2197C31.421 24.3603 31.5 24.5511 31.5 24.75" stroke="black" stroke-width="3" stroke-linecap="round" stroke-linejoin="round"/>
<path d="M30 24.75C30 24.5511 30.079 24.3603 30.2197 24.2197C30.3603 24.079 30.5511 24 30.75 24" stroke="black" stroke-width="3" stroke-linecap="round" stroke-linejoin="round"/>
<path d="M30.75 25.5C30.5511 25.5 30.3603 25.421 30.2197 25.2803C30.079 25.1397 30 24.9489 30 24.75" stroke="black" stroke-width="3" stroke-linecap="round" stroke-linejoin="round"/>
<path d="M31.5 24.75C31.5 24.9489 31.421 25.1397 31.2803 25.2803C31.1397 25.421 30.9489 25.5 30.75 25.5" stroke="black" stroke-width="3" stroke-linecap="round" stroke-linejoin="round"/>
<path d="M41.25 21.7501H41.222C40.0995 18.057 37.8195 14.8226 34.7185 12.5241C31.6176 10.2257 27.8599 8.98486 24 8.98486C20.1401 8.98486 16.3824 10.2257 13.2815 12.5241C10.1805 14.8226 7.90054 18.057 6.778 21.7501H6.75C5.35761 21.7501 4.02226 22.3032 3.03769 23.2878C2.05312 24.2724 1.5 25.6077 1.5 27.0001C1.5 28.3925 2.05312 29.7278 3.03769 30.7124C4.02226 31.697 5.35761 32.2501 6.75 32.2501H6.778C7.90054 35.9432 10.1805 39.1776 13.2815 41.4761C16.3824 43.7746 20.1401 45.0153 24 45.0153C27.8599 45.0153 31.6176 43.7746 34.7185 41.4761C37.8195 39.1776 40.0995 35.9432 41.222 32.2501H41.25C42.6424 32.2501 43.9777 31.697 44.9623 30.7124C45.9469 29.7278 46.5 28.3925 46.5 27.0001C46.5 25.6077 45.9469 24.2724 44.9623 23.2878C43.9777 22.3032 42.6424 21.7501 41.25 21.7501Z" stroke="black" stroke-width="3" stroke-linecap="round" stroke-linejoin="round"/>
<path d="M30.708 34.5C29.8638 35.4438 28.83 36.1988 27.6741 36.7157C26.5182 37.2326 25.2662 37.4998 24 37.4998C22.7338 37.4998 21.4818 37.2326 20.3259 36.7157C19.17 36.1988 18.1362 35.4438 17.292 34.5" stroke="black" stroke-width="3" stroke-linecap="round" stroke-linejoin="round"/>
<path d="M28.9762 1.5C30.1923 2.30737 31.1939 3.39845 31.8944 4.67914C32.5949 5.95983 32.9734 7.39169 32.9972 8.85126C33.021 10.3108 32.6895 11.7543 32.0311 13.0572C31.3728 14.36 30.4074 15.4832 29.2182 16.3298C28.029 17.1765 26.6518 17.7211 25.2052 17.9169C23.7586 18.1126 22.2862 17.9535 20.9148 17.4534C19.5433 16.9532 18.3142 16.127 17.3333 15.0459C16.3523 13.9648 15.6491 12.6614 15.2842 11.248" stroke="black" stroke-width="3" stroke-linecap="round" stroke-linejoin="round"/>
</svg>
