<svg width="81" height="48" viewBox="0 0 81 48" fill="none" xmlns="http://www.w3.org/2000/svg">
<rect x="1" y="9" width="80" height="31" rx="15.5" fill="#F0ECE7"/>
<path d="M15.4998 1.5C12.4998 4.5 18.4998 6 15.4998 9" stroke="#383B37" stroke-width="3" stroke-linecap="round" stroke-linejoin="round"/>
<path d="M22.9998 1.5C19.9998 4.5 25.9998 6 22.9998 9" stroke="#383B37" stroke-width="3" stroke-linecap="round" stroke-linejoin="round"/>
<path d="M30.4998 1.5C27.4998 4.5 33.4998 6 30.4998 9" stroke="#383B37" stroke-width="3" stroke-linecap="round" stroke-linejoin="round"/>
<path d="M35.676 33.02C40.734 34.39 44 36.558 44 39C44 43.142 34.6 46.5 23 46.5C11.4 46.5 2 43.142 2 39C2 36.558 5.266 34.4 10.322 33.02" stroke="#383B37" stroke-width="3" stroke-linecap="round" stroke-linejoin="round"/>
<path d="M9.5 21C8 31.5 11.874 36 11.874 36C12.5 37.5 16.856 40.5 23 40.5C29.144 40.5 33.5 37.5 34.126 36C34.126 36 38 31.5 36.5 21" stroke="#383B37" stroke-width="3" stroke-linecap="round" stroke-linejoin="round"/>
<path d="M9.5 21C9.5 22.5913 10.9223 24.1174 13.4541 25.2426C15.9858 26.3679 19.4196 27 23 27C26.5804 27 30.0142 26.3679 32.5459 25.2426C35.0777 24.1174 36.5 22.5913 36.5 21C36.5 19.4087 35.0777 17.8826 32.5459 16.7574C30.0142 15.6321 26.5804 15 23 15C19.4196 15 15.9858 15.6321 13.4541 16.7574C10.9223 17.8826 9.5 19.4087 9.5 21V21Z" stroke="#383B37" stroke-width="3" stroke-linecap="round" stroke-linejoin="round"/>
<path d="M12.98 25.02L14 24C16.5217 21.9141 19.7311 20.8443 23 21C26.2689 20.8443 29.4782 21.9141 32 24L33.02 25.02" stroke="#383B37" stroke-width="3" stroke-linecap="round" stroke-linejoin="round"/>
</svg>
