<svg width="48" height="48" viewBox="0 0 48 48" fill="none" xmlns="http://www.w3.org/2000/svg">
<path d="M24.3 46.5H3.5C2.96957 46.5 2.46086 46.2893 2.08579 45.9142C1.71071 45.5391 1.5 45.0304 1.5 44.5V3.5C1.5 2.96957 1.71071 2.46086 2.08579 2.08579C2.46086 1.71071 2.96957 1.5 3.5 1.5H44.5C45.0304 1.5 45.5391 1.71071 45.9142 2.08579C46.2893 2.46086 46.5 2.96957 46.5 3.5V44.5C46.5 45.0304 46.2893 45.5391 45.9142 45.9142C45.5391 46.2893 45.0304 46.5 44.5 46.5H32.3V29.5H37.42C37.6657 29.5018 37.9034 29.413 38.0879 29.2507C38.2723 29.0884 38.3905 28.8639 38.42 28.62L39.18 22.62C39.1971 22.479 39.1839 22.3359 39.1413 22.2004C39.0987 22.0648 39.0278 21.9399 38.9332 21.834C38.8386 21.728 38.7224 21.6434 38.5926 21.5858C38.4627 21.5282 38.3221 21.499 38.18 21.5H32.3V19.38C32.3 18.9361 32.3874 18.4966 32.5573 18.0865C32.7271 17.6765 32.9761 17.3038 33.29 16.99C33.6038 16.6761 33.9765 16.4271 34.3865 16.2573C34.7966 16.0874 35.2361 16 35.68 16H39.3C39.5652 16 39.8196 15.8946 40.0071 15.7071C40.1946 15.5196 40.3 15.2652 40.3 15V9C40.3 8.73478 40.1946 8.48043 40.0071 8.29289C39.8196 8.10536 39.5652 8 39.3 8H35.68C32.6618 8 29.7673 9.19896 27.6331 11.3331C25.499 13.4673 24.3 16.3618 24.3 19.38V21.5H19.3C19.0348 21.5 18.7804 21.6054 18.5929 21.7929C18.4054 21.9804 18.3 22.2348 18.3 22.5V28.5C18.3 28.7652 18.4054 29.0196 18.5929 29.2071C18.7804 29.3946 19.0348 29.5 19.3 29.5H24.3V46.5Z" stroke="black" stroke-width="3" stroke-linecap="round" stroke-linejoin="round"/>
</svg>
