<svg width="34" height="48" viewBox="0 0 34 48" fill="none" xmlns="http://www.w3.org/2000/svg">
<path d="M9.5 16.5C9.5 18.4891 10.2902 20.3968 11.6967 21.8033C13.1032 23.2098 15.0109 24 17 24C18.9891 24 20.8968 23.2098 22.3033 21.8033C23.7098 20.3968 24.5 18.4891 24.5 16.5C24.5 14.5109 23.7098 12.6032 22.3033 11.1967C20.8968 9.79018 18.9891 9 17 9C15.0109 9 13.1032 9.79018 11.6967 11.1967C10.2902 12.6032 9.5 14.5109 9.5 16.5Z" stroke="black" stroke-width="3" stroke-linecap="round" stroke-linejoin="round"/>
<path d="M17 1.5C20.9782 1.5 24.7936 3.08035 27.6066 5.8934C30.4196 8.70644 32 12.5218 32 16.5C32 23.314 21.852 40.4 18.25 45.83C18.1132 46.0363 17.9274 46.2055 17.7093 46.3225C17.4912 46.4396 17.2475 46.5008 17 46.5008C16.7525 46.5008 16.5088 46.4396 16.2907 46.3225C16.0726 46.2055 15.8868 46.0363 15.75 45.83C12.148 40.4 2 23.314 2 16.5C2 12.5218 3.58035 8.70644 6.3934 5.8934C9.20644 3.08035 13.0218 1.5 17 1.5V1.5Z" stroke="black" stroke-width="3" stroke-linecap="round" stroke-linejoin="round"/>
</svg>
