<svg width="31" height="30" viewBox="0 0 31 30" fill="none" xmlns="http://www.w3.org/2000/svg">
<path fill-rule="evenodd" clip-rule="evenodd" d="M16.5329 1.87375C16.4054 1.87369 16.2792 1.8979 16.1614 1.94497C16.0437 1.99201 15.9368 2.06097 15.8466 2.14791C15.8466 2.14798 15.8467 2.14784 15.8466 2.14791L2.25984 15.2729C2.16966 15.36 2.0979 15.4636 2.04909 15.5773C2.00027 15.6911 1.97515 15.8131 1.97515 15.9362C1.97515 16.0594 2.00027 16.1814 2.04909 16.2952C2.0979 16.4089 2.16944 16.5123 2.25962 16.5994L9.22006 23.322C9.22008 23.322 9.22005 23.322 9.22006 23.322C9.40205 23.4977 9.64888 23.5965 9.9062 23.5965C10.1635 23.5965 10.4103 23.4977 10.5923 23.322C10.9714 22.9559 11.5859 22.956 11.9648 23.3222C12.3437 23.6884 12.3437 24.2819 11.9646 24.648C11.4186 25.1753 10.6782 25.4715 9.9062 25.4715C9.13418 25.4715 8.39377 25.1753 7.8478 24.648L0.887586 17.9256C0.617033 17.6644 0.402411 17.3543 0.25598 17.013C0.109549 16.6716 0.0341797 16.3057 0.0341797 15.9362C0.0341797 15.5668 0.109549 15.2009 0.25598 14.8595C0.402411 14.5182 0.617033 14.2081 0.887586 13.9469L14.4742 0.822086C14.7447 0.560961 15.066 0.353655 15.4193 0.212422C15.7725 0.071242 16.1511 -0.0013627 16.5333 -0.00125109H23.4924C24.2645 -0.00125109 25.0051 0.295064 25.5511 0.822511C26.0971 1.34996 26.4038 2.06533 26.4038 2.81125V9.535C26.4036 10.2804 26.0972 10.9955 25.5517 11.5227C25.1729 11.8889 24.5584 11.8891 24.1793 11.5231C23.8001 11.1571 23.7999 10.5635 24.1788 10.1973C24.3606 10.0216 24.4627 9.78339 24.4628 9.535C24.4628 9.53493 24.4628 9.53506 24.4628 9.535V2.81125C24.4628 2.56261 24.3606 2.32415 24.1786 2.14834C23.9966 1.97252 23.7497 1.87375 23.4924 1.87375L16.5329 1.87375Z" fill="white"/>
<path fill-rule="evenodd" clip-rule="evenodd" d="M19.7729 4.45449C20.0123 4.29998 20.2938 4.2175 20.5817 4.2175C20.9678 4.2175 21.3381 4.36565 21.6111 4.62938C21.8841 4.8931 22.0374 5.25079 22.0374 5.62375C22.0374 5.90187 21.9521 6.17376 21.7921 6.40502C21.6321 6.63628 21.4048 6.81652 21.1388 6.92295C20.8728 7.02939 20.5801 7.05724 20.2977 7.00298C20.0153 6.94872 19.7559 6.81478 19.5524 6.61812C19.3488 6.42145 19.2101 6.17088 19.1539 5.89809C19.0978 5.6253 19.1266 5.34255 19.2368 5.0856C19.347 4.82864 19.5336 4.60901 19.7729 4.45449ZM20.7674 6.05682C20.7966 6.04512 20.8247 6.03064 20.8513 6.0135C20.9045 5.97914 20.9499 5.93511 20.9852 5.88417C21.0027 5.85876 21.0178 5.83164 21.03 5.80313C21.0545 5.74599 21.0669 5.68501 21.067 5.62375C21.067 5.59319 21.0639 5.56256 21.0576 5.5323C21.0389 5.44137 20.9927 5.35785 20.9248 5.29229C20.857 5.22674 20.7705 5.18209 20.6764 5.16401C20.645 5.15799 20.6133 5.155 20.5817 5.155C20.5183 5.155 20.4552 5.16701 20.396 5.19068C20.3665 5.20249 20.3384 5.21702 20.3121 5.234C20.2594 5.26803 20.2138 5.31189 20.1782 5.36333C20.1605 5.38898 20.1455 5.41613 20.1334 5.44437C20.1091 5.50097 20.0965 5.5619 20.0965 5.62375C20.0965 5.65468 20.0996 5.6853 20.1058 5.7152C20.1244 5.80546 20.1702 5.88917 20.2386 5.9552C20.3069 6.02124 20.3936 6.06554 20.487 6.08349C20.518 6.08944 20.5497 6.0925 20.5817 6.0925C20.6457 6.0925 20.7088 6.08026 20.7674 6.05682Z" fill="white"/>
<path fill-rule="evenodd" clip-rule="evenodd" d="M20.8635 16.8738H23.4928C24.0288 16.8738 24.4633 17.2935 24.4633 17.8113C24.4633 18.329 24.0288 18.7488 23.4928 18.7488H20.859C20.681 18.7482 20.5083 18.8077 20.3708 18.917C20.2333 19.0262 20.1395 19.1784 20.1058 19.3473C20.072 19.5162 20.1002 19.6912 20.1857 19.8421C20.2712 19.993 20.4085 20.1103 20.5739 20.1739L20.5759 20.1747L23.2469 21.2078C23.8299 21.4344 24.3132 21.8499 24.6138 22.3831C24.9143 22.9163 25.0135 23.5339 24.8942 24.13C24.775 24.7261 24.4447 25.2635 23.9601 25.6501C23.4755 26.0367 22.8668 26.2483 22.2383 26.2488H19.6108C19.0749 26.2488 18.6404 25.829 18.6404 25.3113C18.6404 24.7935 19.0749 24.3738 19.6108 24.3738H22.237C22.4148 24.3736 22.5871 24.3137 22.7242 24.2043C22.8613 24.0949 22.9548 23.9429 22.9885 23.7742C23.0223 23.6055 22.9942 23.4307 22.9092 23.2798C22.8242 23.1292 22.6877 23.0117 22.5231 22.9475C22.5228 22.9474 22.5226 22.9473 22.5224 22.9472L19.8564 21.9161C19.856 21.916 19.8556 21.9158 19.8553 21.9157C19.2704 21.6906 18.7851 21.2756 18.4829 20.742C18.1805 20.2081 18.0805 19.589 18.2 18.9915C18.3196 18.394 18.6512 17.8555 19.1378 17.4689C19.6239 17.0827 20.2341 16.8722 20.8635 16.8738Z" fill="white"/>
<path fill-rule="evenodd" clip-rule="evenodd" d="M21.552 15.9362C22.088 15.9362 22.5225 16.356 22.5225 16.8737V17.8112C22.5225 18.329 22.088 18.7487 21.552 18.7487C21.016 18.7487 20.5815 18.329 20.5815 17.8112V16.8737C20.5815 16.356 21.016 15.9362 21.552 15.9362Z" fill="white"/>
<path fill-rule="evenodd" clip-rule="evenodd" d="M21.552 24.3737C22.088 24.3737 22.5225 24.7935 22.5225 25.3112V26.2487C22.5225 26.7665 22.088 27.1862 21.552 27.1862C21.016 27.1862 20.5815 26.7665 20.5815 26.2487V25.3112C20.5815 24.7935 21.016 24.3737 21.552 24.3737Z" fill="white"/>
<path fill-rule="evenodd" clip-rule="evenodd" d="M18.2097 13.766C19.2694 13.342 20.4052 13.1237 21.5522 13.1237C22.6993 13.1237 23.835 13.342 24.8947 13.766C25.9544 14.19 26.9173 14.8115 27.7284 15.595C28.5394 16.3785 29.1828 17.3087 29.6218 18.3324C30.0607 19.356 30.2866 20.4532 30.2866 21.5612C30.2866 22.6693 30.0607 23.7665 29.6218 24.7901C29.1828 25.8138 28.5394 26.744 27.7284 27.5275C26.9173 28.311 25.9544 28.9325 24.8947 29.3565C23.835 29.7805 22.6993 29.9987 21.5522 29.9987C20.4052 29.9987 19.2694 29.7805 18.2097 29.3565C17.15 28.9325 16.1872 28.311 15.3761 27.5275C14.565 26.744 13.9217 25.8138 13.4827 24.7901C13.0438 23.7665 12.8179 22.6693 12.8179 21.5612C12.8179 20.4532 13.0438 19.356 13.4827 18.3324C13.9217 17.3087 14.565 16.3785 15.3761 15.595C16.1872 14.8115 17.15 14.19 18.2097 13.766ZM21.5522 14.9987C20.6601 14.9987 19.7767 15.1685 18.9525 15.4983C18.1283 15.8281 17.3794 16.3115 16.7486 16.9209C16.1178 17.5302 15.6174 18.2537 15.276 19.0499C14.9346 19.8461 14.7588 20.6994 14.7588 21.5612C14.7588 22.423 14.9346 23.2764 15.276 24.0726C15.6174 24.8688 16.1178 25.5922 16.7486 26.2016C17.3794 26.811 18.1283 27.2944 18.9525 27.6242C19.7767 27.954 20.6601 28.1237 21.5522 28.1237C22.4444 28.1237 23.3278 27.954 24.152 27.6242C24.9762 27.2944 25.7251 26.811 26.3559 26.2016C26.9867 25.5923 27.4871 24.8688 27.8285 24.0726C28.1699 23.2764 28.3456 22.423 28.3456 21.5612C28.3456 20.6994 28.1699 19.8461 27.8285 19.0499C27.4871 18.2537 26.9867 17.5302 26.3559 16.9209C25.7251 16.3115 24.9762 15.8281 24.152 15.4983C23.3278 15.1685 22.4444 14.9987 21.5522 14.9987Z" fill="white"/>
</svg>
