<svg width="27" height="26" viewBox="0 0 27 26" fill="none" xmlns="http://www.w3.org/2000/svg">
<path d="M14.4451 1.47547L18.0143 8.54659L24.8838 9.22715C25.0473 9.24074 25.2035 9.3009 25.3339 9.40052C25.4643 9.50014 25.5635 9.63504 25.6196 9.78925C25.6757 9.94345 25.6865 10.1105 25.6506 10.2706C25.6147 10.4308 25.5337 10.5773 25.4171 10.6928L19.7636 16.2961L21.8597 23.9102C21.9026 24.0717 21.8979 24.2422 21.8462 24.4011C21.7945 24.56 21.698 24.7005 21.5683 24.8059C21.4386 24.9113 21.2813 24.9769 21.1151 24.9949C20.949 25.013 20.7812 24.9826 20.6319 24.9076L13.6675 21.4589L6.71264 24.9033C6.56335 24.9784 6.39556 25.0087 6.22944 24.9907C6.06332 24.9726 5.90594 24.907 5.77625 24.8016C5.64655 24.6963 5.55005 24.5557 5.49836 24.3968C5.44667 24.2379 5.44199 24.0674 5.48487 23.9059L7.58093 16.2919L1.92318 10.6885C1.80662 10.573 1.72561 10.4265 1.68972 10.2664C1.65384 10.1062 1.6646 9.93919 1.72071 9.78498C1.77683 9.63077 1.87596 9.49587 2.00636 9.39625C2.13677 9.29664 2.29299 9.23647 2.45652 9.22288L9.32604 8.54233L12.8899 1.47547C12.9632 1.33232 13.0745 1.21218 13.2118 1.12829C13.349 1.04439 13.5067 1 13.6675 1C13.8283 1 13.986 1.04439 14.1232 1.12829C14.2604 1.21218 14.3718 1.33232 14.4451 1.47547V1.47547Z" stroke="#9B6333" stroke-width="2" stroke-linecap="round" stroke-linejoin="round"/>
</svg>
