<svg width="80" height="48" viewBox="0 0 80 48" fill="none" xmlns="http://www.w3.org/2000/svg">
<rect y="9" width="80" height="31" rx="15.5" fill="#F0ECE7"/>
<path d="M7.5 23.158C7.5 18.3841 9.39642 13.8057 12.7721 10.43C16.1477 7.05438 20.7261 5.15796 25.5 5.15796C30.2739 5.15796 34.8523 7.05438 38.2279 10.43C41.6036 13.8057 43.5 18.3841 43.5 23.158H7.5Z" stroke="#383B37" stroke-width="3" stroke-linecap="round" stroke-linejoin="round"/>
<path d="M4.5 23.158H46.5" stroke="#383B37" stroke-width="3" stroke-linecap="round" stroke-linejoin="round"/>
<path d="M25.5 2.15796V5.15796" stroke="#383B37" stroke-width="3" stroke-linecap="round" stroke-linejoin="round"/>
<path d="M1.5 44.1579L9 36.8579L19.5 45.8579L43.624 28.4359C43.938 28.2092 44.1909 27.9081 44.3599 27.5596C44.5289 27.2111 44.6087 26.8261 44.5923 26.4392C44.5758 26.0522 44.4636 25.6754 44.2656 25.3425C44.0676 25.0096 43.7901 24.7311 43.458 24.5319C42.103 23.719 40.558 23.2773 38.9781 23.2509C37.3982 23.2246 35.8393 23.6147 34.458 24.3819L28.6 27.6319C26.8637 28.5773 24.869 28.9382 22.9115 28.6612C20.954 28.3842 19.1378 27.4839 17.732 26.0939L16.552 24.9159C15.6611 24.028 14.5137 23.4426 13.2719 23.2423C12.0302 23.0421 10.7569 23.2371 9.632 23.7999V23.7999C9.38977 23.9214 9.17983 24.0986 9.01946 24.3171C8.85909 24.5355 8.75286 24.7889 8.70951 25.0564C8.66617 25.3239 8.68694 25.5978 8.77012 25.8557C8.85331 26.1137 8.99653 26.3481 9.188 26.5399L10.104 27.4559C11.1493 28.504 11.9199 29.7937 12.3476 31.2108C12.7753 32.6278 12.8469 34.1285 12.556 35.5799L11.812 39.2659" stroke="#383B37" stroke-width="3" stroke-linecap="round" stroke-linejoin="round"/>
</svg>
